<svg width="36" height="36" viewBox="0 0 36 36" fill="none" xmlns="http://www.w3.org/2000/svg">
<path d="M11.9655 9.99997L11.9706 10.1523L12.0615 10.2713L17.6567 17.5982L18 18.0477L18.3433 17.5982L23.9378 10.2713L24.0286 10.1523L24.0338 9.99997C24.1039 7.94491 23.6986 6.54426 22.998 5.38075C22.4598 4.48717 21.7444 3.73727 21.003 2.96002C20.8074 2.75491 20.6099 2.54789 20.4133 2.33583L20.1026 2.00049L19.7871 2.33099L17.9999 4.20345L16.2121 2.33094L15.8968 2.00055L15.586 2.33583C15.3895 2.54789 15.192 2.7549 14.9964 2.96002C14.2549 3.73726 13.5395 4.48717 13.0014 5.38075C12.3007 6.54426 11.8954 7.94491 11.9655 9.99997ZM17.7016 29.955L17.7403 29.8649V29.7662V19.5085V18.8695L17.1617 19.0716L8.76983 22.0024L8.67137 22.0368L8.598 22.1136L8.90882 22.4393C8.598 22.1136 8.59784 22.1137 8.59776 22.1139L8.59744 22.1142L8.5968 22.1149L8.59512 22.1167L8.59033 22.1219C8.58641 22.126 8.58122 22.1317 8.57474 22.1387C8.56196 22.1528 8.54413 22.1727 8.52207 22.1983C8.47796 22.2494 8.4165 22.3233 8.34265 22.4192C8.19503 22.611 7.9973 22.8916 7.78886 23.2556C7.37231 23.9831 6.9102 25.0484 6.72534 26.4039C6.54255 27.7446 6.63438 28.9835 6.77001 29.8839C6.83803 30.335 6.91747 30.7042 6.98053 30.9622C7.01202 31.0913 7.03951 31.1928 7.05941 31.2632C7.06932 31.2983 7.07739 31.3257 7.08323 31.3449C7.08611 31.3544 7.08842 31.362 7.0901 31.3674L7.0921 31.3739L7.09274 31.3759L7.09298 31.3767L7.09306 31.377C7.09314 31.3771 7.09314 31.3772 7.51018 31.2316L7.09314 31.3772L7.22189 31.7818L7.61679 31.6784L9.98761 31.0574L10.5803 33.5414L10.6899 34.0005L11.125 33.8732C12.9206 33.3479 14.3624 32.8152 15.4482 32.2025C16.5341 31.5897 17.308 30.8723 17.7016 29.955ZM18.2597 29.7662V29.8649L18.2984 29.955C18.692 30.8723 19.4659 31.5897 20.5518 32.2025C21.6376 32.8152 23.0794 33.3479 24.875 33.8732L25.3101 34.0005L25.4197 33.5414L26.0124 31.0574L28.3832 31.6784L28.7781 31.7818L28.9069 31.3772L28.4898 31.2316C28.9069 31.3772 28.9069 31.3771 28.9069 31.377L28.907 31.3767L28.9073 31.3759L28.9079 31.3739L28.9099 31.3674C28.9116 31.362 28.9139 31.3544 28.9168 31.3449C28.9226 31.3257 28.9307 31.2983 28.9406 31.2632C28.9605 31.1928 28.988 31.0913 29.0195 30.9622C29.0825 30.7042 29.162 30.335 29.23 29.8839C29.3656 28.9835 29.4574 27.7446 29.2747 26.4039C29.0898 25.0484 28.6277 23.9831 28.2111 23.2556C28.0027 22.8916 27.805 22.611 27.6574 22.4192C27.5835 22.3233 27.522 22.2494 27.4779 22.1983C27.4559 22.1727 27.438 22.1528 27.4253 22.1387C27.4188 22.1317 27.4136 22.126 27.4097 22.1219L27.4049 22.1167L27.4032 22.1149L27.4026 22.1142L27.4022 22.1139C27.4022 22.1137 27.402 22.1136 27.0912 22.4393L27.402 22.1136L27.3286 22.0368L27.2302 22.0024L18.8383 19.0716L18.2597 18.8695V19.5085V29.7662ZM11.3676 9.72054L11.2325 9.51697L10.9958 9.52317C7.91051 9.60339 6.01986 9.82563 3.8093 11.0411L3.42764 11.251L3.6204 11.6549L4.82246 14.1737L2.41834 15.4332L2 15.6523L2.2347 16.0762C3.80419 18.9107 5.5225 20.3972 7.96701 22.0908L8.15403 22.2202L8.36383 22.1378L16.7557 18.8407L17.2851 18.6327L16.9622 18.1465L11.3676 9.72054ZM25.0042 9.52317L24.7675 9.51697L24.6324 9.72054L19.0378 18.1465L18.7149 18.6327L19.2443 18.8407L27.6362 22.1378L27.846 22.2202L28.033 22.0908C30.4775 20.3972 32.1958 18.9107 33.7653 16.0762L34 15.6523L33.5817 15.4332L31.1775 14.1737L32.3796 11.6549L32.5723 11.251L32.1907 11.0411C29.9801 9.82563 28.0895 9.60339 25.0042 9.52317Z" fill="#F2EAEE" stroke="black" stroke-width="2"/>
</svg>
